inDegrees=no
num_controls=7
num_derivatives=13
num_iterations=81
num_multipliers=7
num_parameters=0
num_slacks=7
num_states=26
objective=0.448641
objective_accelerations=0.049603
objective_balance=0.007873
objective_effort=0.037229
objective_height=0.348997
objective_ligament=0.004940
solver_duration=1184.814282
status=Solve_Succeeded
success=true
DataType=double
version=3
OpenSimVersion=4.5
endheader
time	/jointset/ground_pelvis/pelvis_tilt/value	/jointset/ground_pelvis/pelvis_tx/value	/jointset/ground_pelvis/pelvis_ty/value	/jointset/hip_l/hip_flexion_l/value	/jointset/hip_l/hip_adduction_l/value	/jointset/hip_l/hip_rotation_l/value	/jointset/back/lumbar_extension/value	/jointset/patellofemoral_l/patellar_flexion_l/value	/jointset/knee_l/knee_flexion_l/value	/jointset/knee_l/knee_adduction_l/value	/jointset/knee_l/knee_rotation_l/value	/jointset/ankle_l/ankle_angle_l/value	/jointset/subtalar_l/subtalar_angle_l/value	/jointset/ground_pelvis/pelvis_tilt/speed	/jointset/ground_pelvis/pelvis_tx/speed	/jointset/ground_pelvis/pelvis_ty/speed	/jointset/hip_l/hip_flexion_l/speed	/jointset/hip_l/hip_adduction_l/speed	/jointset/hip_l/hip_rotation_l/speed	/jointset/back/lumbar_extension/speed	/jointset/patellofemoral_l/patellar_flexion_l/speed	/jointset/knee_l/knee_flexion_l/speed	/jointset/knee_l/knee_adduction_l/speed	/jointset/knee_l/knee_rotation_l/speed	/jointset/ankle_l/ankle_angle_l/speed	/jointset/subtalar_l/subtalar_angle_l/speed	/forceset/tau_hip_flexion_l	/forceset/tau_hip_adduction_l	/forceset/tau_hip_rotation_l	/forceset/tau_knee_flexion_l	/forceset/tau_ankle_angle_l	/forceset/tau_subtalar_angle_l	/forceset/tau_lumbar_extension	lambda_cid13_p0	lambda_cid13_p1	lambda_cid13_p2	lambda_cid13_p3	lambda_cid13_p4	lambda_cid13_p5	lambda_cid14_p0	/jointset/ground_pelvis/pelvis_tilt/accel	/jointset/ground_pelvis/pelvis_tx/accel	/jointset/ground_pelvis/pelvis_ty/accel	/jointset/hip_l/hip_flexion_l/accel	/jointset/hip_l/hip_adduction_l/accel	/jointset/hip_l/hip_rotation_l/accel	/jointset/back/lumbar_extension/accel	/jointset/patellofemoral_l/patellar_flexion_l/accel	/jointset/knee_l/knee_flexion_l/accel	/jointset/knee_l/knee_adduction_l/accel	/jointset/knee_l/knee_rotation_l/accel	/jointset/ankle_l/ankle_angle_l/accel	/jointset/subtalar_l/subtalar_angle_l/accel	gamma_cid13_p0	gamma_cid13_p1	gamma_cid13_p2	gamma_cid13_p3	gamma_cid13_p4	gamma_cid13_p5	gamma_cid14_p0
0.5	-0.4511673587675813	-0.08044599163289562	0.7619265953813095	1.274847066920249	-0.3039874902118556	-0.0445172678267002	-0.329248871985458	0.6813536477165507	0.6813536477165301	-0.1646179916905162	0.1650740606329217	0.02549863212778285	-0.04543851509314284	-0.7611444610014235	-0.2848709317296609	-0.5028418081941707	2.402890859991559	-0.04123650577853339	0.5758340617081595	-0.6213261332233844	1.757177067530358	1.757177067530343	-0.009159241526811067	0.02609222246858543	0.1975677419314276	-0.02163971747610723	-0.2497947351561684	0.02729618547602952	-0.02126021663960344	-0.2038264453920019	0.1552414435197613	0.03153650229993579	0.2240965050090009	10.70182192797663	-17.81623692557321	5.003588099958778	-6.580389056422086	-609.5939671323118	-50.18564991646896	-28.55439100882509	0.6984272950874414	0.7637267009551889	-0.2902553862674631	-1.711602431422687	0.464283284706447	-0.3341766237306578	1.918937689001513	-1.139612002850825	-1.139612002850857	-0.07838767268279416	0.09030918697006267	-0.1038637237381011	0.4424441881752741	-2.579709529171215e-07	-6.252463720853818e-07	1.424311186704898e-06	8.856754384226843e-08	-3.631905005528237e-07	1.082445035855601e-07	-2.866695099360274e-07
0.51	-0.4587423092410742	-0.08325626036400408	0.7568848254371533	1.298786015038293	-0.3043778785375904	-0.03877578651518757	-0.3353664264178886	0.6988651177488291	0.6988651177488304	-0.1647159866524495	0.1653397041848681	0.02746800786454472	-0.04563419878387324	-0.7537555470726037	-0.2771655823312033	-0.5053996150045234	2.384570999012119	-0.03683861212248247	0.5723664389654322	-0.6021367691424375	1.744831330268987	1.744831330268998	-0.01040046056760086	0.02703078391709678	0.1962411296800684	-0.01750044430907449	-0.2580543904279883	0.02784655093993773	-0.02140515831441884	-0.2054216239293512	0.1556776779031925	0.03195492924381812	0.2304664271357207	10.56155220198998	-17.87238216944371	4.897151976230969	-6.51525609219492	-614.5018675247225	-49.80191629080209	-27.5477771822556	0.7726046843584162	0.7765418245804268	-0.2217283526017862	-1.941382243805677	0.4278211607886572	-0.367681840923015	1.926133385678518	-1.324840789256263	-1.324840789252303	-0.1411328507351358	0.09447463938665179	-0.1569967971403961	0.3990870649685184	-2.455114402902472e-07	-5.304386761184791e-07	1.362839787012768e-06	9.360678539611988e-08	-3.355705534333711e-07	1.35202401507988e-07	-2.677415791458667e-07
0.52	-0.4662406743267629	-0.08598895504807007	0.7518208404200568	1.322531923684024	-0.3047242321758192	-0.03307190677937881	-0.3412906476859022	0.7162445731681977	0.7162445731682225	-0.1648252225709832	0.1656145023544205	0.0294221301145317	-0.04578860610613304	-0.7458273834406168	-0.2693561223211695	-0.5072848227821791	2.364282965528638	-0.03242956827725462	0.5683137465675352	-0.5826595003400015	1.730774144948571	1.730774144948609	-0.01140743284740121	0.02792314598936576	0.1945170445764865	-0.01338444378199213	-0.2663140456998111	0.02839691640384226	-0.02155009998920881	-0.2070168024667052	0.1561139122866219	0.03237335618769532	0.2368363492624391	10.41636741675608	-17.9311705470766	4.79514012465439	-6.460802085272412	-619.4980530638533	-49.48787910578123	-26.5358836695707	0.8062772357208506	0.7845488232703903	-0.1557355797280828	-2.105236932230902	0.466513322541832	-0.4511905547645417	1.976518633299303	-1.481901614659984	-1.48190161465992	-0.03153832048490994	0.0810693117174604	-0.1833582941826364	0.4377896601851941	-2.373867086308042e-07	-4.203076454368884e-07	1.336725488477433e-06	1.014883292467399e-07	-3.077398670280734e-07	1.623289802885089e-07	-2.520971231795843e-07
0.53	-0.4736574323268578	-0.08864324216424825	0.7467413912669923	1.346065653299391	-0.305025965296716	-0.02741058722850893	-0.347019142833582	0.7334746918488206	0.7334746918488477	-0.164942918796103	0.1658967524930812	0.03135693255675617	-0.04590150537798438	-0.7374629307181773	-0.2615031929585363	-0.508488438175048	2.342168279765765	-0.02788289037699126	0.563918374834714	-0.563047650100761	1.714934706644097	1.714934706644128	-0.01207156071553503	0.02842256546585274	0.1923618896388034	-0.009168998513686716	-0.2738759366912062	0.02866431211141499	-0.0217009044036922	-0.2090595039501433	0.1568490260701045	0.03261199618421434	0.2425436116729892	10.36784673418025	-17.93050151546462	4.685588172961193	-6.28751033951092	-624.2782324390878	-49.14302814437002	-25.52493048759308	0.8606926200954623	0.7854023117771098	-0.08524769505814875	-2.308822437179637	0.4537427700844205	-0.43870293139191	1.952300083507255	-1.682148842160086	-1.682148842160924	-0.07481707595985604	0.01845145881022601	-0.2438185968105878	0.4172864576369011	-2.24924616788441e-07	-3.556203043443319e-07	1.277682407061993e-06	9.928441611518166e-08	-2.756897332381812e-07	1.78284949787341e-07	-2.37364880914582e-07
0.54	-0.4809887131338103	-0.09121905252299663	0.7416533913248005	1.369369388449357	-0.3052812320893475	-0.02179421988473655	-0.3525517631060151	0.750536979365635	0.750536979365664	-0.1650654497111004	0.1661808114651459	0.03326773854895388	-0.0459714772976559	-0.72873194481214	-0.2536607708352088	-0.5089949806075889	2.318284072448327	-0.02313630262409428	0.5593233051478538	-0.5434845252906868	1.697207912186872	1.697207912186899	-0.01237437082295855	0.02828491267017611	0.1897177545711427	-0.004798973346033813	-0.2814378276826011	0.02893170781898806	-0.02185170881818257	-0.2111022054335802	0.1575841398535876	0.03285063618073385	0.2482508740835394	10.31434240121848	-17.9320305429031	4.579895299414158	-6.125382586598477	-629.1494660139831	-48.86241404906718	-24.51557419878086	0.8795838724403695	0.7824473754092475	-0.01632098766246428	-2.459141243143899	0.506495293068554	-0.4911301455722321	1.966773547466048	-1.859372845209566	-1.859372845209556	0.04072523165714631	-0.04634514271525556	-0.2811543201781621	0.4687056400546907	-2.076637434671022e-07	-3.412110879034733e-07	1.182207480757928e-06	8.592212504589427e-08	-2.389712746823545e-07	1.818819473149428e-07	-2.236418963616346e-07
0.55	-0.4882303427639441	-0.09371623590632243	0.7365636004202699	1.39242586575432	-0.305488571556609	-0.01622366941050899	-0.3578880908158402	0.7674147195817193	0.7674147195817396	-0.1651904283138332	0.1664605202385403	0.03515089275603733	-0.04599730022176162	-0.7194651537376835	-0.2457514525359301	-0.508866490227702	2.292734360969515	-0.01836110493081414	0.5548876239923818	-0.5237171826430974	1.678225737314895	1.678225737314907	-0.01271951825260835	0.02756590068501218	0.186946023848681	-0.0003837073028308494	-0.289820476853432	0.02906251368352422	-0.02182941554066761	-0.2120407867692163	0.1576331210224542	0.03311819853852122	0.2546634248399948	10.08158296241836	-17.91791536980968	4.475343726435455	-6.224841771101736	-633.6556196817245	-48.46120942178158	-23.50854374683534	0.9695246380004172	0.7988577780118011	0.04189677283658495	-2.644471537048877	0.4584959330558324	-0.4048555407284183	1.991289728082229	-1.934755634120806	-1.934755634122929	-0.08687212845544651	-0.09856162249346576	-0.2702351433114722	0.4251433008076986	-1.891757465893035e-07	-3.040266027307411e-07	1.107514911177912e-06	7.703914674691837e-08	-2.085035203911274e-07	1.927019186152083e-07	-2.08388551839318e-07
0.5600000000000001	-0.4953754449007228	-0.09613358936249053	0.7314779869639424	1.415218528857135	-0.3056490662618186	-0.01069448943587412	-0.3630248300782539	0.7840992148838978	0.7840992148839094	-0.1653218058704978	0.1667302624128682	0.03700731911688988	-0.04597952924256436	-0.7094264461411424	-0.2376947854036668	-0.5081594909669184	2.265521232018739	-0.01376735021360499	0.5510492052291599	-0.5035668358084346	1.658558929405752	1.658558929405751	-0.01365416160946678	0.02629159285677522	0.1843721853249672	0.003919807314556146	-0.2982031260242627	0.02919331954806035	-0.02180712226315207	-0.2129793681048524	0.1576821021913208	0.03338576089630862	0.2610759755964503	9.842273011413102	-17.90520706355456	4.373934047827436	-6.327981917172203	-638.2743482958298	-48.120745094174	-22.50452662427595	1.033967176857281	0.8119171420061616	0.09938078851694374	-2.791824737536721	0.4702066978543564	-0.3716776671222596	2.043374384880658	-1.996299452643067	-1.996299452643088	-0.07717395378458095	-0.1574043113311394	-0.2415758804286045	0.4463553548914957	-1.692152014437529e-07	-2.395117950797611e-07	1.057761169666757e-06	7.353134377231612e-08	-1.855366112174196e-07	2.121894584426702e-07	-1.912987753537582e-07
0.5700000000000001	-0.5024170418271857	-0.09847000419203379	0.7264024650858023	1.437731029417957	-0.3057639656378963	-0.005203224611388084	-0.3679590831963614	0.8005824119124315	0.800582411912427	-0.1654633222801999	0.1669856523127685	0.03883811559963835	-0.04591886726421594	-0.6988375554790645	-0.2295990105320713	-0.5068334797480952	2.236717233805632	-0.009207609622175468	0.5470373423971479	-0.4833136732162562	1.63783531593154	1.637835315931538	-0.01455086901128829	0.02482403930954994	0.181725330189697	0.008212610527116224	-0.3052756741647731	0.02908789404002847	-0.02189897242000871	-0.2149132651582206	0.1583566648217883	0.03336202569432759	0.266293964557237	9.786854024266395	-17.79783343770269	4.257026680692404	-6.135943830903645	-642.7471943702524	-47.74132970853582	-21.50435045015432	1.079636631198629	0.8067974651003698	0.1658875164921319	-2.9639593161225	0.4494837317552849	-0.4410657805296313	2.011804385900123	-2.147130023859817	-2.147130023859966	-0.08117951163742579	-0.1359998676352989	-0.2854955913229311	0.4206573811154273	-1.502197830303782e-07	-2.013145318020341e-07	9.79075786910975e-07	6.463855512195914e-08	-1.604993764833037e-07	2.17786193976977e-07	-1.748303873464279e-07
0.58	-0.5093510925229648	-0.1007257833117882	0.7213435385654344	1.459947635606062	-0.3058331424096664	0.0002428965469207383	-0.3726917012506443	0.816851025260413	0.8168510252603923	-0.1656108578395711	0.167227452878953	0.04064059247878474	-0.04581529433840646	-0.6879172000043636	-0.2215676434459021	-0.5048404194121834	2.206342357475539	-0.004622829352024272	0.5420204719935777	-0.4632398230435307	1.615642193295347	1.615642193295344	-0.01485799154336962	0.02357372611364216	0.1787082646045586	0.01250199680676276	-0.312348222305283	0.02898246853199643	-0.02199082257686865	-0.2168471622115884	0.1590312274522563	0.03333829049234639	0.2715119535180237	9.72398263492703	-17.69120254779885	4.142577216490406	-5.943378336400816	-647.3450170617971	-47.41601810143021	-20.50948827487698	1.100260139381868	0.7990355849209066	0.2327906119346619	-3.106000360933492	0.4752146335986913	-0.5726791814338656	2.007511900990058	-2.290201285039105	-2.290201285039118	0.04074302016345335	-0.1139562410675841	-0.3156179704022475	0.4456719683087849	-1.324812738496046e-07	-1.973912798011005e-07	8.627119876505661e-07	4.873276187061971e-08	-1.327659038100518e-07	2.052925797341524e-07	-1.591712494502805e-07
